{
  "accessors": [
    {
      "bufferView": 2,
      "componentType": 5126,
      "count": 20192,
      "max": [
        7.1655130386352539,
        133.34268188476562,
        12.862105369567871
      ],
      "min": [
        -7.1655135154724121,
        -37.995872497558594,
        -0.86326467990875244
      ],
      "type": "VEC3"
    },
    {
      "bufferView": 2,
      "byteOffset": 242304,
      "componentType": 5126,
      "count": 20192,
      "max": [
        0.9999992847442627,
        1,
        1
      ],
      "min": [
        -0.99999934434890747,
        -0.78895759582519531,
        -1
      ],
      "type": "VEC3"
    },
    {
      "bufferView": 1,
      "componentType": 5126,
      "count": 20192,
      "max": [
        1,
        1.0000003576278687
      ],
      "min": [
        0,
        0
      ],
      "type": "VEC2"
    },
    {
      "bufferView": 0,
      "componentType": 5125,
      "count": 118656,
      "max": [
        20191
      ],
      "min": [
        0
      ],
      "type": "SCALAR"
    },
    {
      "bufferView": 2,
      "byteOffset": 484608,
      "componentType": 5126,
      "count": 10512,
      "max": [
        6.2016873359680176,
        81.749214172363281,
        13.40620231628418
      ],
      "min": [
        -6.201688289642334,
        -39.5228271484375,
        -0.3498096764087677
      ],
      "type": "VEC3"
    },
    {
      "bufferView": 2,
      "byteOffset": 610752,
      "componentType": 5126,
      "count": 10512,
      "max": [
        0.99998968839645386,
        0.94630146026611328,
        0.99991089105606079
      ],
      "min": [
        -0.99998968839645386,
        -0.9999995231628418,
        -0.99999809265136719
      ],
      "type": "VEC3"
    },
    {
      "bufferView": 1,
      "byteOffset": 161536,
      "componentType": 5126,
      "count": 10512,
      "max": [
        1,
        1.0000003576278687
      ],
      "min": [
        0,
        0
      ],
      "type": "VEC2"
    },
    {
      "bufferView": 0,
      "byteOffset": 474624,
      "componentType": 5125,
      "count": 59328,
      "max": [
        10511
      ],
      "min": [
        0
      ],
      "type": "SCALAR"
    },
    {
      "bufferView": 2,
      "byteOffset": 736896,
      "componentType": 5126,
      "count": 8888,
      "max": [
        6.4890813827514648,
        15.277410507202148,
        9.6000909805297852
      ],
      "min": [
        -6.4890813827514648,
        -1.0871713161468506,
        -0.40898919105529785
      ],
      "type": "VEC3"
    },
    {
      "bufferView": 2,
      "byteOffset": 843552,
      "componentType": 5126,
      "count": 8888,
      "max": [
        0.98480802774429321,
        1,
        0.99995416402816772
      ],
      "min": [
        -0.98480802774429321,
        -1,
        -0.99995315074920654
      ],
      "type": "VEC3"
    },
    {
      "bufferView": 1,
      "byteOffset": 245632,
      "componentType": 5126,
      "count": 8888,
      "max": [
        0.50925922393798828,
        1
      ],
      "min": [
        -0.0092592686414718628,
        0
      ],
      "type": "VEC2"
    },
    {
      "bufferView": 0,
      "byteOffset": 711936,
      "componentType": 5125,
      "count": 27540,
      "max": [
        8887
      ],
      "min": [
        0
      ],
      "type": "SCALAR"
    },
    {
      "bufferView": 2,
      "byteOffset": 950208,
      "componentType": 5126,
      "count": 162,
      "max": [
        5.422156810760498,
        17.026994705200195,
        9.5006589889526367
      ],
      "min": [
        -5.422156810760498,
        -0.21950113773345947,
        8.3361606597900391
      ],
      "type": "VEC3"
    },
    {
      "bufferView": 2,
      "byteOffset": 952152,
      "componentType": 5126,
      "count": 162,
      "max": [
        0.91843515634536743,
        0.73245000839233398,
        0.99544727802276611
      ],
      "min": [
        -0.91843515634536743,
        -0.73244994878768921,
        -0.89458721876144409
      ],
      "type": "VEC3"
    },
    {
      "bufferView": 1,
      "byteOffset": 316736,
      "componentType": 5126,
      "count": 162,
      "max": [
        0.50925922393798828,
        1
      ],
      "min": [
        0.47222214937210083,
        1
      ],
      "type": "VEC2"
    },
    {
      "bufferView": 0,
      "byteOffset": 822096,
      "componentType": 5125,
      "count": 168,
      "max": [
        161
      ],
      "min": [
        0
      ],
      "type": "SCALAR"
    },
    {
      "bufferView": 2,
      "byteOffset": 954096,
      "componentType": 5126,
      "count": 6865,
      "max": [
        3.0046403408050537,
        15.277730941772461,
        9.6335277557373047
      ],
      "min": [
        -3.0046403408050537,
        2.2518866062164307,
        -0.38023644685745239
      ],
      "type": "VEC3"
    },
    {
      "bufferView": 2,
      "byteOffset": 1036476,
      "componentType": 5126,
      "count": 6865,
      "max": [
        0.98480790853500366,
        1,
        0.99993693828582764
      ],
      "min": [
        -0.98480790853500366,
        -1,
        -0.99993693828582764
      ],
      "type": "VEC3"
    },
    {
      "bufferView": 1,
      "byteOffset": 318032,
      "componentType": 5126,
      "count": 6865,
      "max": [
        0.50925922393798828,
        1
      ],
      "min": [
        -0.0092592686414718628,
        0
      ],
      "type": "VEC2"
    },
    {
      "bufferView": 0,
      "byteOffset": 822768,
      "componentType": 5125,
      "count": 21120,
      "max": [
        6864
      ],
      "min": [
        0
      ],
      "type": "SCALAR"
    },
    {
      "bufferView": 2,
      "byteOffset": 1118856,
      "componentType": 5126,
      "count": 8144,
      "max": [
        5.9700984954833984,
        26.321218490600586,
        9.5990085601806641
      ],
      "min": [
        -5.9700984954833984,
        16.003290176391602,
        -0.35519444942474365
      ],
      "type": "VEC3"
    },
    {
      "bufferView": 2,
      "byteOffset": 1216584,
      "componentType": 5126,
      "count": 8144,
      "max": [
        0.99227797985076904,
        1,
        0.99998700618743896
      ],
      "min": [
        -0.99410951137542725,
        -1,
        -0.99998700618743896
      ],
      "type": "VEC3"
    },
    {
      "bufferView": 1,
      "byteOffset": 372952,
      "componentType": 5126,
      "count": 8144,
      "max": [
        0.50925922393798828,
        1
      ],
      "min": [
        -0.0092592686414718628,
        0
      ],
      "type": "VEC2"
    },
    {
      "bufferView": 0,
      "byteOffset": 907248,
      "componentType": 5125,
      "count": 25572,
      "max": [
        8143
      ],
      "min": [
        0
      ],
      "type": "SCALAR"
    }
  ],
  "asset": {
    "extras": {
      "author": "charlesmconard (https://sketchfab.com/charlesmconard)",
      "license": "CC-BY-4.0 (http://creativecommons.org/licenses/by/4.0/)",
      "source": "https://sketchfab.com/3d-models/toothbrush-3d334e0398ce44a598573a819e0daa79",
      "title": "Toothbrush"
    },
    "generator": "Sketchfab-7.91.0",
    "version": "2.0"
  },
  "bufferViews": [
    {
      "buffer": 0,
      "byteLength": 1009536,
      "byteOffset": 0,
      "name": "floatBufferViews",
      "target": 34963
    },
    {
      "buffer": 0,
      "byteLength": 438104,
      "byteOffset": 1009536,
      "byteStride": 8,
      "name": "floatBufferViews",
      "target": 34962
    },
    {
      "buffer": 0,
      "byteLength": 1314312,
      "byteOffset": 1447640,
      "byteStride": 12,
      "name": "floatBufferViews",
      "target": 34962
    }
  ],
  "buffers": [
    {
      "byteLength": 2761952,
      "uri": "scene.bin"
    }
  ],
  "materials": [
    {
      "doubleSided": true,
      "emissiveFactor": [
        0,
        0,
        0
      ],
      "name": "Material_47",
      "pbrMetallicRoughness": {
        "baseColorFactor": [
          1,
          1,
          1,
          1
        ],
        "metallicFactor": 0,
        "roughnessFactor": 0.85123896230000007
      }
    },
    {
      "doubleSided": true,
      "emissiveFactor": [
        0,
        0,
        0
      ],
      "name": "01_-_Default",
      "pbrMetallicRoughness": {
        "baseColorFactor": [
          0.18431400000000001,
          0,
          0.52156899999999995,
          1
        ],
        "metallicFactor": 0,
        "roughnessFactor": 0.85123896230000007
      }
    },
    {
      "doubleSided": true,
      "emissiveFactor": [
        0,
        0,
        0
      ],
      "name": "Material_48",
      "pbrMetallicRoughness": {
        "baseColorFactor": [
          0.18431400000000001,
          1,
          0.52156899999999995,
          1
        ],
        "metallicFactor": 0,
        "roughnessFactor": 0.83493930319999998
      }
    },
    {
      "doubleSided": true,
      "emissiveFactor": [
        0,
        0,
        0
      ],
      "name": "Material_63_Slot_1",
      "pbrMetallicRoughness": {
        "baseColorFactor": [
          0,
          0,
          0,
          1
        ],
        "metallicFactor": 0,
        "roughnessFactor": 0.95770514949999996
      }
    },
    {
      "doubleSided": true,
      "emissiveFactor": [
        0,
        0,
        0
      ],
      "name": "Material_49",
      "pbrMetallicRoughness": {
        "baseColorFactor": [
          1,
          1,
          1,
          1
        ],
        "metallicFactor": 0,
        "roughnessFactor": 0.83493930319999998
      }
    },
    {
      "doubleSided": true,
      "emissiveFactor": [
        0,
        0,
        0
      ],
      "name": "Material_50",
      "pbrMetallicRoughness": {
        "baseColorFactor": [
          0.109804,
          0.17254900000000001,
          1,
          1
        ],
        "metallicFactor": 0,
        "roughnessFactor": 0.83493930319999998
      }
    }
  ],
  "meshes": [
    {
      "name": "Box001_Material #47_0",
      "primitives": [
        {
          "attributes": {
            "NORMAL": 1,
            "POSITION": 0,
            "TEXCOORD_0": 2
          },
          "indices": 3,
          "material": 0,
          "mode": 4
        }
      ]
    },
    {
      "name": "Box001_01 - Default_0",
      "primitives": [
        {
          "attributes": {
            "NORMAL": 5,
            "POSITION": 4,
            "TEXCOORD_0": 6
          },
          "indices": 7,
          "material": 1,
          "mode": 4
        }
      ]
    },
    {
      "name": "Cylinder001_Material #48_0",
      "primitives": [
        {
          "attributes": {
            "NORMAL": 9,
            "POSITION": 8,
            "TEXCOORD_0": 10
          },
          "indices": 11,
          "material": 2,
          "mode": 4
        }
      ]
    },
    {
      "name": "Cylinder001_Material #63 Slot #1_0",
      "primitives": [
        {
          "attributes": {
            "NORMAL": 13,
            "POSITION": 12,
            "TEXCOORD_0": 14
          },
          "indices": 15,
          "material": 3,
          "mode": 4
        }
      ]
    },
    {
      "name": "Cylinder001_Material #49_0",
      "primitives": [
        {
          "attributes": {
            "NORMAL": 17,
            "POSITION": 16,
            "TEXCOORD_0": 18
          },
          "indices": 19,
          "material": 4,
          "mode": 4
        }
      ]
    },
    {
      "name": "Cylinder001_Material #50_0",
      "primitives": [
        {
          "attributes": {
            "NORMAL": 21,
            "POSITION": 20,
            "TEXCOORD_0": 22
          },
          "indices": 23,
          "material": 5,
          "mode": 4
        }
      ]
    }
  ],
  "nodes": [
    {
      "children": [
        1
      ],
      "name": "RootNode (gltf orientation matrix)",
      "rotation": [
        -0.70710678118654746,
        -0,
        -0,
        0.70710678118654757
      ]
    },
    {
      "children": [
        2
      ],
      "name": "RootNode (model correction matrix)"
    },
    {
      "children": [
        3
      ],
      "matrix": [
        1,
        0,
        0,
        0,
        0,
        0,
        1,
        0,
        0,
        -1,
        0,
        0,
        0,
        0,
        0,
        1
      ],
      "name": "8412f19a0b7e4e97bf37891f51ea7e44.fbx"
    },
    {
      "children": [
        4,
        7
      ],
      "name": "RootNode"
    },
    {
      "children": [
        5,
        6
      ],
      "matrix": [
        1,
        0,
        0,
        0,
        0,
        2.2204460492503131e-16,
        -1,
        0,
        0,
        1,
        2.2204460492503131e-16,
        0,
        0,
        0,
        0,
        1
      ],
      "name": "Box001"
    },
    {
      "mesh": 0,
      "name": "Box001_Material #47_0"
    },
    {
      "mesh": 1,
      "name": "Box001_01 - Default_0"
    },
    {
      "children": [
        8,
        9,
        10,
        11
      ],
      "matrix": [
        0.98119586706161499,
        0,
        0,
        0,
        0,
        2.1786924865576984e-16,
        -0.98119586706161499,
        0,
        0,
        0.98119586706161499,
        2.1786924865576984e-16,
        0,
        0,
        4.5153155326843262,
        -105.84719848632812,
        1
      ],
      "name": "Cylinder001"
    },
    {
      "mesh": 2,
      "name": "Cylinder001_Material #48_0"
    },
    {
      "mesh": 3,
      "name": "Cylinder001_Material #63 Slot #1_0"
    },
    {
      "mesh": 4,
      "name": "Cylinder001_Material #49_0"
    },
    {
      "mesh": 5,
      "name": "Cylinder001_Material #50_0"
    }
  ],
  "scene": 0,
  "scenes": [
    {
      "name": "OSG_Scene",
      "nodes": [
        0
      ]
    }
  ]
}

